<svg width="20" height="20" viewBox="0 0 20 20" fill="none" xmlns="http://www.w3.org/2000/svg">
<path d="M5.33711 16.6418C2.92617 16.6418 0.966797 13.6621 0.966797 9.99961C0.966797 6.33711 2.92773 3.35742 5.33711 3.35742C7.74648 3.35742 9.70742 6.33711 9.70742 9.99961C9.70742 13.6621 7.74648 16.6418 5.33711 16.6418Z" fill="#FAFAFA"/>
<path d="M5.33711 3.66992C6.37305 3.66992 7.36523 4.29492 8.1293 5.43086C8.94492 6.6418 9.39492 8.26523 9.39492 9.99961C9.39492 11.734 8.94492 13.3574 8.1293 14.5684C7.36523 15.7043 6.37305 16.3293 5.33711 16.3293C4.30117 16.3293 3.30898 15.7043 2.54492 14.5684C1.72773 13.3574 1.2793 11.734 1.2793 9.99961C1.2793 8.26523 1.7293 6.6418 2.54492 5.43086C3.30898 4.29492 4.29961 3.66992 5.33711 3.66992ZM5.33711 3.04492C2.75117 3.04492 0.654297 6.15898 0.654297 9.99961C0.654297 13.8402 2.75117 16.9543 5.33711 16.9543C7.92305 16.9543 10.0199 13.8402 10.0199 9.99961C10.0199 6.15898 7.92305 3.04492 5.33711 3.04492Z" fill="#B0BEC5"/>
<path d="M4.00508 9.3502C3.5832 8.95332 3.67695 8.16582 4.21758 7.59082C4.2457 7.56113 4.27383 7.53301 4.30352 7.50645C4.06289 7.37051 3.79883 7.29395 3.5207 7.29395C2.39727 7.29395 1.48633 8.53301 1.48633 10.0596C1.48633 11.5861 2.39727 12.8252 3.5207 12.8252C4.64414 12.8252 5.55508 11.5861 5.55508 10.0596C5.55508 9.78613 5.52539 9.52051 5.4707 9.27051C4.96445 9.63457 4.35977 9.68301 4.00508 9.3502Z" fill="url(#paint0_linear_506_122)"/>
<path d="M14.6633 16.9543C17.2495 16.9543 19.3461 13.8406 19.3461 9.99961C19.3461 6.15864 17.2495 3.04492 14.6633 3.04492C12.077 3.04492 9.98047 6.15864 9.98047 9.99961C9.98047 13.8406 12.077 16.9543 14.6633 16.9543Z" fill="#EEEEEE"/>
<path d="M14.6633 16.6418C12.2539 16.6418 10.293 13.6621 10.293 9.99961C10.293 6.33711 12.2539 3.35742 14.6633 3.35742C17.0727 3.35742 19.0336 6.33711 19.0336 9.99961C19.0336 13.6621 17.0742 16.6418 14.6633 16.6418Z" fill="#FAFAFA"/>
<path d="M14.6633 3.66992C15.6992 3.66992 16.6914 4.29492 17.4555 5.43086C18.2711 6.6418 18.7211 8.26523 18.7211 9.99961C18.7211 11.734 18.2711 13.3574 17.4555 14.5684C16.6914 15.7043 15.6992 16.3293 14.6633 16.3293C13.6273 16.3293 12.6352 15.7043 11.8711 14.5684C11.0555 13.3574 10.6055 11.734 10.6055 9.99961C10.6055 8.26523 11.0555 6.6418 11.8711 5.43086C12.6352 4.29492 13.6273 3.66992 14.6633 3.66992ZM14.6633 3.04492C12.0773 3.04492 9.98047 6.15898 9.98047 9.99961C9.98047 13.8402 12.0773 16.9543 14.6633 16.9543C17.2492 16.9543 19.3461 13.8402 19.3461 9.99961C19.3461 6.15898 17.2492 3.04492 14.6633 3.04492Z" fill="#B0BEC5"/>
<path d="M13.3293 9.3502C12.9074 8.95332 13.0012 8.16582 13.5418 7.59082C13.5699 7.56113 13.598 7.53301 13.6277 7.50645C13.3871 7.37051 13.123 7.29395 12.8449 7.29395C11.7215 7.29395 10.8105 8.53301 10.8105 10.0596C10.8105 11.5861 11.7215 12.8252 12.8449 12.8252C13.9684 12.8252 14.8793 11.5861 14.8793 10.0596C14.8793 9.78613 14.8496 9.52051 14.7949 9.27051C14.2902 9.63457 13.684 9.68301 13.3293 9.3502Z" fill="url(#paint1_linear_506_122)"/>
<defs>
<linearGradient id="paint0_linear_506_122" x1="3.51961" y1="7.29332" x2="3.51961" y2="12.8257" gradientUnits="userSpaceOnUse">
<stop stop-color="#424242"/>
<stop offset="1" stop-color="#212121"/>
</linearGradient>
<linearGradient id="paint1_linear_506_122" x1="12.8448" y1="7.29332" x2="12.8448" y2="12.8257" gradientUnits="userSpaceOnUse">
<stop stop-color="#424242"/>
<stop offset="1" stop-color="#212121"/>
</linearGradient>
</defs>
</svg>
