<svg width="110" height="31" viewBox="0 0 110 31" fill="none" xmlns="http://www.w3.org/2000/svg">
<path d="M10.816 28.3649V22.9955C10.2132 22.8534 8.14319 22.283 6.56101 20.1556C5.05982 18.1357 4.93362 15.9718 4.92044 15.2856C4.92985 14.5914 5.03722 12.5228 6.43293 10.5659C8.03583 8.31465 10.2396 7.75843 10.816 7.63257C10.816 5.86445 10.816 4.09429 10.816 2.32617C9.97589 2.42767 5.7718 3.02855 2.71857 7.07432C-0.138782 10.8623 -0.0333031 15.0705 0.0156692 16.0611C0.0702922 17.2222 0.37166 20.657 2.80521 23.7872C5.82077 27.6666 9.91561 28.2593 10.816 28.3649Z" fill="white"/>
<path d="M13.4297 22.9042V28.3649C14.4242 28.2756 16.125 27.9812 17.9653 26.9074C20.0033 25.7158 21.2238 24.1425 21.8228 23.2453C20.5457 22.1694 19.2706 21.0935 17.9935 20.0176C17.5961 20.5819 16.8163 21.5279 15.5468 22.2059C14.7275 22.6424 13.9722 22.823 13.4297 22.9042Z" fill="white"/>
<path d="M13.5449 7.68316V2.33008C14.4151 2.34429 16.2667 2.49857 18.2387 3.71047C20.2165 4.92644 21.2826 6.57073 21.7365 7.37258C20.4745 8.47486 19.2125 9.57512 17.9505 10.6774C17.6548 10.176 17.0276 9.26047 15.9201 8.552C14.967 7.943 14.0704 7.75015 13.5449 7.68316Z" fill="white"/>
<path d="M98.9883 22.9505C98.9883 24.7451 98.9883 26.5396 98.9883 28.3341C98.0484 28.196 93.7351 27.447 90.7214 23.2632C89.9812 22.234 88.1579 19.3859 88.1485 15.2873C88.1372 10.5534 90.5519 7.41908 91.1866 6.64362C94.1984 2.96122 98.0861 2.39079 98.9902 2.2832C98.9902 4.08787 98.9902 5.89253 98.9902 7.69922C98.3762 7.82102 96.5114 8.27371 94.982 10.0784C93.2736 12.0941 93.1342 14.4347 93.1229 15.1777C93.1135 15.7238 93.1173 18.6043 95.2325 20.8556C96.6659 22.3842 98.3159 22.8166 98.9883 22.9505Z" fill="white"/>
<path d="M106.07 19.9961C106.76 20.5807 107.462 21.1654 108.176 21.7541C108.786 22.2555 109.395 22.7488 109.999 23.2319C109.368 24.1393 108.163 25.6334 106.212 26.8148C104.39 27.9171 102.702 28.2744 101.68 28.4064V22.9599C102.354 22.8888 103.002 22.5965 103.328 22.4341C103.672 22.2636 104.505 21.7074 104.931 21.3237C105.241 21.0436 105.633 20.6558 106.07 19.9961Z" fill="white"/>
<path d="M101.68 7.75809C102.755 7.89613 103.29 8.10319 104.083 8.70001C105.443 9.72312 105.626 10.1494 106.027 10.7077C107.308 9.6135 108.638 8.45031 109.92 7.35615C109.398 6.50761 108.242 5.02166 106.319 3.81788C104.409 2.62221 102.621 2.35425 101.68 2.2832C101.68 4.0899 101.68 5.9514 101.68 7.75809Z" fill="white"/>
<path d="M24.0098 0V30.596H85.4682V0H24.0098ZM30.9356 27.6525H26.3755C26.3755 27.6525 26.3755 17.7056 26.3755 13.4142L30.9356 17.7056V27.6525ZM46.6501 28.3996L26.3755 9.2527V2.16194L41.6907 16.65V2.96988H46.6519L46.6501 28.3996ZM53.9808 27.6525H48.9706V2.8765H53.9808V27.6525ZM65.4291 27.6525H56.4031V22.4395H65.4291V27.6525ZM65.4291 17.7848H56.4031V12.6651H65.4291V17.7848ZM65.4291 8.14839H56.4031V2.88868H65.4291V8.14839ZM77.6514 27.6525H72.6845V11.1284H77.6514V27.6525ZM83.3529 8.14839H67.8475V2.88868H83.3529V8.14839Z" fill="white"/>
</svg>
