<svg width="20" height="20" viewBox="0 0 20 20" fill="none" xmlns="http://www.w3.org/2000/svg">
<path d="M14.7147 13.8807C13.9872 14.6083 12.5196 16.0758 11.4141 17.1813C10.633 17.9624 9.36824 17.9623 8.58719 17.1813C7.50158 16.0957 6.06111 14.6552 5.28661 13.8807C2.68311 11.2772 2.68311 7.05612 5.28661 4.45262C7.8901 1.84913 12.1112 1.84913 14.7147 4.45262C17.3182 7.05612 17.3182 11.2772 14.7147 13.8807Z" stroke="#E8E8E8" stroke-linecap="round" stroke-linejoin="round"/>
<path d="M12.5007 9.16667C12.5007 10.5474 11.3814 11.6667 10.0007 11.6667C8.61994 11.6667 7.50065 10.5474 7.50065 9.16667C7.50065 7.78596 8.61994 6.66667 10.0007 6.66667C11.3814 6.66667 12.5007 7.78596 12.5007 9.16667Z" stroke="#E8E8E8" stroke-linecap="round" stroke-linejoin="round"/>
</svg>
