<svg width="1437" height="348" viewBox="0 0 1437 348" fill="none" xmlns="http://www.w3.org/2000/svg">
<path d="M141.296 322.626L141.296 261.555C133.422 259.939 106.38 253.451 85.7107 229.253C66.0996 206.279 64.451 181.666 64.2788 173.862C64.4018 165.966 65.8044 142.438 84.0374 120.18C104.977 94.574 133.766 88.2476 141.296 86.816C141.296 66.7054 141.296 46.5716 141.296 26.4609C130.321 27.6154 75.4007 34.4498 35.5143 80.4665C-1.813 123.551 -0.43506 171.415 0.204697 182.682C0.918272 195.889 4.85523 234.956 36.6462 270.56C76.0405 314.683 129.534 321.425 141.296 322.626Z" fill="white" fill-opacity="0.2"/>
<path d="M175.447 260.516L175.447 322.626C188.439 321.61 210.659 318.262 234.699 306.048C261.322 292.495 277.267 274.601 285.092 264.395C268.409 252.158 251.751 239.921 235.068 227.684C229.876 234.102 219.689 244.862 203.104 252.574C192.401 257.538 182.534 259.593 175.447 260.516Z" fill="white" fill-opacity="0.2"/>
<path d="M176.95 87.394V26.5078C188.318 26.6694 212.506 28.4242 238.268 42.2085C264.105 56.0389 278.032 74.7411 283.962 83.8613C267.476 96.3987 250.99 108.913 234.504 121.45C230.641 115.747 222.447 105.334 207.978 97.2761C195.528 90.3494 183.815 88.1559 176.95 87.394Z" fill="white" fill-opacity="0.2"/>
<path d="M1293.16 261.044C1293.16 281.454 1293.16 301.865 1293.16 322.276C1280.88 320.706 1224.53 312.186 1185.16 264.599C1175.49 252.893 1151.67 220.499 1151.55 173.882C1151.4 120.038 1182.94 84.3883 1191.24 75.5682C1230.58 33.6844 1281.37 27.1964 1293.18 25.9727C1293.18 46.4989 1293.18 67.0252 1293.18 87.5746C1285.16 88.9599 1260.8 94.1088 1240.82 114.635C1218.5 137.563 1216.68 164.184 1216.53 172.635C1216.41 178.846 1216.46 211.61 1244.09 237.216C1262.82 254.602 1284.37 259.52 1293.16 261.044Z" fill="white" fill-opacity="0.2"/>
<path d="M1385.67 227.43C1394.68 234.079 1403.85 240.729 1413.18 247.425C1421.15 253.128 1429.1 258.739 1437 264.234C1428.76 274.555 1413.01 291.548 1387.52 304.986C1363.72 317.524 1341.68 321.587 1328.31 323.088V261.14C1337.12 260.332 1345.59 257.007 1349.84 255.16C1354.35 253.22 1365.22 246.894 1370.78 242.53C1374.84 239.344 1379.96 234.934 1385.67 227.43Z" fill="white" fill-opacity="0.2"/>
<path d="M1328.31 88.2442C1342.36 89.8142 1349.35 92.1693 1359.71 98.9575C1377.48 110.594 1379.86 115.443 1385.11 121.793C1401.84 109.348 1419.21 96.1175 1435.97 83.6725C1429.15 74.0212 1414.04 57.1199 1388.92 43.4281C1363.97 29.8285 1340.62 26.7808 1328.31 25.9727C1328.31 46.522 1328.31 67.6948 1328.31 88.2442Z" fill="white" fill-opacity="0.2"/>
<path d="M313.662 0L313.662 348L1116.53 348V0L313.662 0ZM404.138 314.521H344.567C344.567 314.521 344.567 201.384 344.567 152.573L404.138 201.384L404.138 314.521ZM609.427 323.018L344.567 105.24V24.59L544.639 189.377V33.7794L609.451 33.7794L609.427 323.018ZM705.193 314.521H639.741V32.7174L705.193 32.7174V314.521ZM854.749 314.521L736.837 314.521V255.228L854.749 255.228V314.521ZM854.749 202.284L736.837 202.284V144.053L854.749 144.053V202.284ZM854.749 92.6799L736.837 92.6799V32.8559L854.749 32.8559V92.6799ZM1014.42 314.521H949.531V126.575L1014.42 126.575V314.521ZM1088.9 92.6799L886.343 92.6799V32.8559L1088.9 32.8559V92.6799Z" fill="white" fill-opacity="0.2"/>
</svg>
