<svg width="405" height="141" viewBox="0 0 405 141" fill="none" xmlns="http://www.w3.org/2000/svg">
<path d="M116.14 48.2081V39.0826C114.962 38.8411 110.916 37.8716 107.824 34.2559C104.89 30.823 104.643 27.1452 104.617 25.9791C104.636 24.7992 104.845 21.2835 107.573 17.9576C110.706 14.1314 115.014 13.1861 116.14 12.9722C116.14 9.96715 116.14 6.95866 116.14 3.95361C114.498 4.12612 106.281 5.14735 100.314 12.0234C94.7287 18.4613 94.9349 25.6134 95.0306 27.297C95.1374 29.2705 95.7264 35.1081 100.483 40.4281C106.377 47.0213 114.381 48.0287 116.14 48.2081Z" fill="#0B75B5"/>
<path d="M121.25 38.9275V48.2083C123.194 48.0565 126.518 47.5562 130.115 45.7311C134.098 43.7059 136.484 41.0321 137.655 39.5072C135.159 37.6786 132.666 35.85 130.17 34.0215C129.393 34.9806 127.869 36.5884 125.388 37.7407C123.787 38.4825 122.31 38.7895 121.25 38.9275Z" fill="#0B75B5"/>
<path d="M121.477 13.0589V3.96094C123.177 3.98509 126.796 4.2473 130.651 6.30701C134.516 8.37362 136.6 11.1682 137.487 12.531C135.021 14.4044 132.554 16.2744 130.088 18.1478C129.51 17.2956 128.284 15.7396 126.119 14.5355C124.256 13.5005 122.504 13.1727 121.477 13.0589Z" fill="#0B75B5"/>
<path d="M288.48 39.0069C288.48 42.0568 288.48 45.1067 288.48 48.1566C286.643 47.922 278.212 46.6489 272.322 39.5382C270.875 37.789 267.311 32.9485 267.293 25.9827C267.271 17.9371 271.991 12.6101 273.231 11.2922C279.118 5.03368 286.717 4.0642 288.484 3.88135C288.484 6.94849 288.484 10.0156 288.484 13.0862C287.284 13.2932 283.639 14.0626 280.649 17.1298C277.31 20.5557 277.038 24.5337 277.016 25.7964C276.997 26.7245 277.005 31.6202 281.139 35.4464C283.941 38.0443 287.166 38.7792 288.48 39.0069Z" fill="#0B75B5"/>
<path d="M302.32 33.9834C303.667 34.977 305.04 35.9707 306.436 36.9712C307.629 37.8234 308.818 38.6617 309.999 39.4829C308.766 41.0251 306.41 43.5644 302.596 45.5723C299.036 47.4457 295.737 48.0529 293.738 48.2772V39.0206C295.056 38.8998 296.323 38.403 296.96 38.127C297.633 37.8372 299.261 36.8918 300.093 36.2398C300.7 35.7637 301.466 35.1047 302.32 33.9834Z" fill="#0B75B5"/>
<path d="M293.738 13.1863C295.84 13.4209 296.886 13.7728 298.436 14.7871C301.094 16.526 301.451 17.2505 302.235 18.1993C304.739 16.3397 307.338 14.3628 309.845 12.5032C308.825 11.061 306.565 8.53554 302.806 6.48963C299.073 4.45751 295.579 4.0021 293.738 3.88135C293.738 6.95194 293.738 10.1157 293.738 13.1863Z" fill="#0B75B5"/>
<path d="M141.93 0V52H262.053V0H141.93ZM155.467 46.9973H146.554C146.554 46.9973 146.554 30.0918 146.554 22.7983L155.467 30.0918V46.9973ZM186.181 48.267L146.554 15.7256V3.67436L176.488 28.2978V5.0475H186.185L186.181 48.267ZM200.51 46.9973H190.717V4.8888H200.51V46.9973ZM222.886 46.9973H205.244V38.1375H222.886V46.9973ZM222.886 30.2264H205.244V21.5252H222.886V30.2264ZM222.886 13.8487H205.244V4.9095H222.886V13.8487ZM246.775 46.9973H237.067V18.9135H246.775V46.9973ZM257.919 13.8487H227.613V4.9095H257.919V13.8487Z" fill="#0B75B5"/>
<path d="M25.092 90.312H29.572V93.416H25.092V90.312ZM28.388 90.312H31.588C31.588 90.312 31.588 91.176 31.588 91.592C31.46 98.728 31.332 101.768 30.692 102.664C30.148 103.368 29.7 103.656 28.932 103.816C28.292 103.944 27.332 104.008 26.244 103.976C26.212 102.856 25.892 101.448 25.412 100.488C26.18 100.584 26.788 100.616 27.108 100.616C27.46 100.616 27.716 100.52 27.908 100.2C28.228 99.688 28.292 97.48 28.388 90.856V90.312ZM35.972 79.304L38.468 77.992C39.556 79.144 40.836 80.744 41.38 81.864L38.756 83.368C38.244 82.28 37.028 80.552 35.972 79.304ZM37.892 88.712L40.996 90.024C39.012 97.8 35.3 104.2 30.884 107.784C30.404 107.208 29.348 106.28 28.548 105.8C32.772 102.44 36.228 96.36 37.892 88.712ZM32.196 77.864H35.556C35.46 91.784 36.42 103.4 38.372 103.528C38.82 103.56 39.14 101.928 39.3 99.144C39.844 99.848 41.284 100.808 41.828 101.128C41.06 106.696 39.492 107.912 38.276 107.88C33.252 107.688 32.388 95.848 32.196 77.864ZM24.356 83.464H41.188V86.888H24.356V83.464ZM22.724 83.464H26.18V91.816C26.18 96.456 25.732 103.528 23.3 107.976C22.724 107.336 21.22 106.088 20.484 105.704C22.532 101.672 22.724 95.912 22.724 91.816V83.464ZM12.356 87.656H20.868V90.536H12.356V87.656ZM12.356 92.008H20.868V94.92H12.356V92.008ZM11.044 83.144H21.7V86.184H11.044V83.144ZM14.116 96.456H20.836V106.12H14.116V103.112H17.764V99.464H14.116V96.456ZM12.26 96.456H15.268V107.464H12.26V96.456ZM13.316 79.24L16.356 77.768C17.508 79.016 18.692 80.744 19.236 81.96L16.036 83.688C15.588 82.44 14.404 80.584 13.316 79.24ZM55.236 89.064H73.508V92.552H55.236V89.064ZM61.028 103.272H70.18V106.6H61.028V103.272ZM59.172 95.88H72.292V107.816H68.708V99.176H62.628V107.912H59.172V95.88ZM61.668 85.8L65.22 86.376C63.908 93.352 61.252 98.92 57.06 102.408C56.58 101.704 55.236 100.264 54.468 99.624C58.372 96.776 60.644 91.848 61.668 85.8ZM44.804 87.592H54.276V90.504H44.804V87.592ZM44.804 91.944H54.276V94.824H44.804V91.944ZM43.492 83.144H55.172V86.184H43.492V83.144ZM46.372 96.36H54.468V106.088H46.372V103.016H51.3V99.432H46.372V96.36ZM44.74 96.36H47.844V107.464H44.74V96.36ZM46.788 79.112L49.604 77.672C50.468 79.016 51.428 80.776 51.876 81.96L48.964 83.656C48.516 82.44 47.556 80.488 46.788 79.112ZM55.524 80.744H64.164V84.104H55.524V80.744ZM58.596 77.832H62.276V86.632H58.596V77.832ZM66.916 77.832H70.628V86.632H66.916V77.832ZM64.964 80.68H73.316V84.04H64.964V80.68ZM77.7 81.16H103.364V85.16H77.7V81.16ZM75.908 101.8H105.188V105.672H75.908V101.8ZM88.164 83.336H92.548V103.336H88.164V83.336ZM126.404 93.192H130.212V106.152H126.404V93.192ZM119.108 103.848H137.188V107.208H119.108V103.848ZM120.708 97.672H135.94V100.872H120.708V97.672ZM124.484 82.472V87.048H132.1V82.472H124.484ZM120.932 79.24H135.812V90.28H120.932V79.24ZM134.244 90.696L136.548 93.544C132.132 94.664 125.924 95.208 120.74 95.368C120.644 94.536 120.228 93.256 119.876 92.456C124.9 92.2 130.692 91.592 134.244 90.696ZM112.388 80.808H116.132V107.848H112.388V80.808ZM107.78 86.824H119.524V90.408H107.78V86.824ZM112.612 88.264L114.852 89.256C113.636 93.832 111.364 99.528 108.9 102.696C108.548 101.576 107.716 99.976 107.108 99.016C109.348 96.456 111.588 91.816 112.612 88.264ZM117.572 78.152L120.164 81.128C116.804 82.408 112.324 83.272 108.484 83.72C108.324 82.92 107.812 81.608 107.396 80.808C111.044 80.2 115.076 79.272 117.572 78.152ZM116.036 91.272C116.836 91.944 119.62 94.824 120.228 95.56L118.052 98.568C117.284 97.032 115.364 94.12 114.372 92.776L116.036 91.272ZM150.82 82.408H168.708V85.928H150.82V82.408ZM151.396 89.768H165.06V93.256H151.396V89.768ZM157.732 77.832H161.508V91.656H157.732V77.832ZM155.556 92.552C157.86 98.472 162.724 102.824 169.956 104.616C169.124 105.384 168.036 106.92 167.524 107.912C159.844 105.672 155.012 100.744 152.1 93.544L155.556 92.552ZM164.676 89.768H165.38L166.052 89.64L168.516 90.632C165.956 100.136 159.524 105.32 151.012 107.816C150.628 106.792 149.7 105.16 148.964 104.36C156.708 102.536 162.724 97.832 164.676 90.376V89.768ZM139.364 94.088C142.18 93.512 146.308 92.52 150.212 91.528L150.692 95.048C147.14 96.008 143.332 97 140.356 97.768L139.364 94.088ZM139.78 83.912H150.404V87.496H139.78V83.912ZM143.46 77.832H147.236V103.656C147.236 105.48 146.916 106.44 145.828 107.016C144.74 107.592 143.204 107.72 140.9 107.72C140.804 106.728 140.292 105.192 139.844 104.2C141.092 104.232 142.436 104.232 142.852 104.232C143.3 104.232 143.46 104.072 143.46 103.624V77.832ZM180.26 85.352H192.676V88.904H180.26V85.352ZM184.516 77.928H187.844V107.752H184.516V77.928ZM193.38 80.232H201.028V83.624H193.38V80.232ZM192.58 87.976H201.508V91.4H192.58V87.976ZM188.356 80.584L190.692 79.336C191.652 80.552 192.74 82.248 193.252 83.368L190.788 84.744C190.34 83.656 189.284 81.864 188.356 80.584ZM195.364 89.512H199.012V103.432C199.012 105.256 198.756 106.28 197.604 106.888C196.484 107.496 194.948 107.56 192.804 107.56C192.708 106.504 192.26 104.904 191.78 103.848C193.028 103.88 194.404 103.88 194.82 103.88C195.236 103.88 195.364 103.784 195.364 103.4V89.512ZM176.772 77.832L180.26 79.08C178.564 81.928 176.004 85 173.54 86.952C173.092 86.152 172.164 84.776 171.556 84.072C173.572 82.504 175.716 79.912 176.772 77.832ZM174.884 91.56L177.892 88.552L178.404 88.712V107.88H174.884V91.56ZM177.252 84.584L180.708 85.736C178.884 89.864 175.972 94.28 173.06 97C172.676 96.2 171.62 94.312 170.948 93.48C173.412 91.336 175.844 87.976 177.252 84.584ZM180.868 90.6H183.556C183.524 96.712 183.204 100.744 180.74 103.208C180.388 102.536 179.588 101.48 178.916 100.968C180.708 98.984 180.836 95.848 180.868 90.6ZM188.964 90.6H191.684V98.6C191.684 99.464 191.684 99.688 191.908 99.688C192.1 99.688 192.42 99.688 192.612 99.688C192.932 99.688 193.348 99.624 193.668 99.528C193.7 100.232 193.828 101.512 193.924 102.152C193.54 102.312 193.092 102.344 192.58 102.344C192.388 102.344 192.228 102.344 191.972 102.344C189.412 102.344 188.964 101.352 188.964 98.536V90.6ZM207.364 78.952H213.892V82.408H207.364V78.952ZM205.156 78.952H208.58V90.568C208.58 95.656 208.292 103.112 206.436 107.88C205.764 107.336 204.196 106.472 203.332 106.184C205.06 101.736 205.156 95.304 205.156 90.6V78.952ZM211.812 78.952H215.268V103.624C215.268 105.256 215.012 106.312 214.052 106.92C213.124 107.528 211.876 107.624 209.956 107.624C209.86 106.664 209.476 105 209.028 104.04C210.02 104.072 211.012 104.072 211.364 104.072C211.684 104.04 211.812 103.912 211.812 103.528V78.952ZM219.684 78.984H228.676V82.536H219.684V78.984ZM216.356 91.72H229.476V95.304H216.356V91.72ZM228.74 91.72H229.476L230.148 91.592L232.612 92.488C230.372 101.064 224.74 105.512 217.124 107.688C216.74 106.728 215.844 105.192 215.14 104.392C221.86 102.856 227.044 98.792 228.74 92.296V91.72ZM220.388 94.792C222.596 99.56 227.204 103.08 233.54 104.488C232.676 105.288 231.588 106.824 231.044 107.816C224.356 105.96 219.812 101.8 217.06 95.816L220.388 94.792ZM219.14 78.984H222.628V82.536C222.628 85.608 221.732 89.128 217.476 91.272C217.028 90.568 215.684 89.16 215.012 88.648C218.692 86.92 219.14 84.584 219.14 82.44V78.984ZM226.404 78.984H229.988V86.024C229.988 86.952 230.052 87.304 230.436 87.304C230.756 87.304 231.396 87.304 231.684 87.304C232.132 87.304 232.868 87.208 233.284 87.08C233.348 88.008 233.444 89.288 233.54 90.12C233.092 90.312 232.388 90.344 231.748 90.344C231.3 90.344 230.5 90.344 230.084 90.344C227.012 90.344 226.404 89.064 226.404 85.992V78.984ZM207.94 95.176C209.444 94.696 211.524 93.896 213.764 93.032L214.308 95.592C212.58 96.68 210.916 97.736 209.348 98.728L207.94 95.176ZM207.236 87.4L209.476 85.736C210.692 86.888 212.164 88.392 212.868 89.384L210.564 91.304C209.86 90.28 208.42 88.584 207.236 87.4ZM242.116 77.96L245.732 79.08C243.684 84.552 240.356 90.312 236.868 93.96C236.516 93.032 235.46 90.92 234.82 89.992C237.732 87.08 240.484 82.536 242.116 77.96ZM238.884 86.792L242.66 83.048V83.08V107.848H238.884V86.792ZM247.524 90.856H259.524V94.408H247.524V90.856ZM258.34 90.856H262.116C262.116 90.856 262.084 91.912 262.084 92.36C261.7 101.448 261.348 104.968 260.452 106.152C259.78 107.016 259.076 107.336 258.116 107.496C257.284 107.656 255.94 107.656 254.5 107.592C254.404 106.536 254.052 105.064 253.476 104.104C254.596 104.232 255.588 104.232 256.132 104.232C256.58 104.232 256.836 104.168 257.156 103.784C257.7 103.048 258.052 99.976 258.34 91.528V90.856ZM250.564 92.84L254.372 93C253.668 100.264 251.46 104.904 246.468 107.752C245.988 107.016 244.676 105.512 243.908 104.872C248.42 102.76 250.18 98.792 250.564 92.84ZM254.148 78.792H259.3V82.44H254.148V78.792ZM249.54 79.272L253.316 80.232C251.876 85.032 249.348 89.576 246.18 92.424C245.732 91.56 244.548 89.704 243.844 88.904C246.436 86.664 248.484 83.112 249.54 79.272ZM255.716 78.792H259.876C260.804 82.632 262.916 86.44 265.732 88.488C264.996 89.448 263.876 91.336 263.364 92.616C260.132 89.64 257.668 84.968 256.452 80.744H255.716V78.792ZM268.228 81.704H296.772V85.288H268.228V81.704ZM276.356 93.224H290.692V96.424H276.356V93.224ZM289.444 87.816H293.188V103.72C293.188 105.608 292.836 106.664 291.524 107.272C290.244 107.848 288.42 107.88 285.828 107.88C285.668 106.824 285.156 105.192 284.644 104.2C286.308 104.296 288.196 104.264 288.74 104.264C289.252 104.264 289.444 104.104 289.444 103.656V87.816ZM278.148 77.8L282.116 78.696C279.908 85.768 276.1 92.968 270.052 97.224C269.476 96.36 268.26 94.984 267.492 94.248C273.028 90.6 276.58 83.848 278.148 77.8ZM276.26 98.504H290.692V101.704H276.26V98.504ZM276.132 87.816H290.308V91.208H276.132V87.816ZM274.02 87.816H277.892V96.392C277.892 100.232 277.252 105.224 273.796 108.136C273.284 107.336 271.78 105.704 271.012 105.16C273.796 102.76 274.02 99.336 274.02 96.328V87.816ZM300.932 79.08H308.612V82.504H304.292V107.784H300.932V79.08ZM307.94 79.08H308.58L309.124 78.952L311.62 80.36C310.788 83.08 309.764 86.28 308.836 88.776C310.788 91.304 311.172 93.576 311.172 95.464C311.172 97.544 310.756 98.92 309.732 99.688C309.252 100.072 308.612 100.296 307.908 100.392C307.332 100.488 306.564 100.488 305.828 100.488C305.828 99.56 305.508 98.12 304.996 97.192C305.54 97.224 305.988 97.256 306.404 97.224C306.692 97.192 307.012 97.128 307.268 96.968C307.62 96.68 307.812 95.976 307.812 95.048C307.812 93.512 307.428 91.4 305.572 89.16C306.5 86.344 307.492 82.152 307.94 80.168V79.08ZM314.34 79.112H327.108V93.864H314.34V90.568H323.396V82.408H314.34V79.112ZM314.628 84.904H325.476V88.008H314.628V84.904ZM321.028 91.912C322.276 97.576 324.964 102.312 329.7 104.456C328.836 105.192 327.684 106.728 327.108 107.752C321.988 104.936 319.396 99.464 317.924 92.488L321.028 91.912ZM326.5 94.184L328.996 96.904C327.204 98.28 325.06 99.816 323.46 100.744L321.444 98.376C322.98 97.384 325.22 95.56 326.5 94.184ZM312.708 107.976L312.356 104.648L313.924 103.432L320.804 101.928C320.772 103.016 320.836 104.584 320.964 105.416C314.66 107.016 313.444 107.464 312.708 107.976ZM312.708 107.976C312.42 107.112 311.62 105.608 311.076 104.968C311.716 104.552 312.548 103.656 312.548 102.184V79.112H316.292V104.488C316.292 104.488 312.708 106.6 312.708 107.976ZM349.476 96.392L353.22 94.696C355.812 98.216 358.788 102.792 360.356 105.768L356.388 107.912C355.012 104.872 351.94 99.976 349.476 96.392ZM339.908 78.568L344.196 79.944C341.828 85.192 338.084 90.664 334.596 94.024C333.86 93.16 332.164 91.496 331.172 90.76C334.596 87.88 337.956 83.208 339.908 78.568ZM335.396 106.76C335.14 105.928 334.404 103.784 333.828 102.632C334.916 102.344 335.748 101.48 336.996 100.072C338.372 98.664 342.436 93.192 344.932 87.88L349.444 89.768C346.308 95.272 342.18 100.68 338.276 104.488V104.584C338.276 104.584 335.396 105.96 335.396 106.76ZM335.396 106.76L335.268 103.464L337.828 102.056L356.196 100.872C356.388 102.024 356.804 103.656 357.06 104.552C339.396 105.96 337.06 106.088 335.396 106.76ZM349.316 78.6H353.828C355.204 83.112 358.148 87.624 362.116 90.056C361.22 90.888 359.812 92.712 359.172 93.928C354.98 90.696 351.812 85.512 350.148 80.744H349.316V78.6ZM345.732 78.6H352.42V82.568H345.732V78.6ZM365.028 79.752H388.836V83.4H365.028V79.752ZM365.316 85.704H384.26V89.032H365.316V85.704ZM387.492 79.752H391.428V103.016C391.428 105.224 391.044 106.408 389.668 107.08C388.324 107.72 386.308 107.816 383.396 107.816C383.268 106.664 382.692 104.744 382.148 103.656C383.972 103.752 386.052 103.752 386.692 103.72C387.268 103.72 387.492 103.56 387.492 102.952V79.752ZM366.98 91.4H370.724V104.616H366.98V91.4ZM370.308 91.4H382.596V102.28H370.308V98.984H378.82V94.728H370.308V91.4Z" fill="#0B75B5"/>
<path d="M15.1983 136.224C12.2543 136.224 9.96631 134.016 9.96631 130.144C9.96631 126.304 12.3183 124.016 15.2943 124.016C16.7663 124.016 17.9023 124.72 18.6223 125.488L17.6303 126.688C17.0223 126.064 16.2863 125.632 15.3263 125.632C13.2943 125.632 11.8863 127.328 11.8863 130.08C11.8863 132.88 13.1983 134.592 15.2783 134.592C16.3503 134.592 17.1823 134.112 17.8703 133.344L18.8783 134.512C17.9343 135.616 16.7343 136.224 15.1983 136.224ZM20.9501 136V124.224H22.8221V129.04H27.8621V124.224H29.7181V136H27.8621V130.656H22.8221V136H20.9501ZM32.8094 136V124.224H39.7854V125.792H34.6814V129.056H38.9854V130.64H34.6814V134.432H39.9614V136H32.8094ZM42.4032 136V124.224H44.3072L48.2272 131.152L49.4592 133.632H49.5392C49.4272 132.432 49.2832 130.992 49.2832 129.728V124.224H51.0592V136H49.1392L45.2512 129.072L44.0192 126.592H43.9392C44.0192 127.824 44.1792 129.168 44.1792 130.464V136H42.4032ZM58.9692 136.224C55.8332 136.224 53.5132 134.016 53.5132 130.144C53.5132 126.304 55.8972 124.016 59.0172 124.016C60.6812 124.016 61.8012 124.752 62.5212 125.488L61.5132 126.688C60.9212 126.096 60.2012 125.632 59.0812 125.632C56.8732 125.632 55.4332 127.328 55.4332 130.08C55.4332 132.88 56.7292 134.592 59.1612 134.592C59.8812 134.592 60.6012 134.384 61.0012 134.016V131.264H58.6812V129.728H62.6972V134.832C61.9132 135.632 60.5692 136.224 58.9692 136.224ZM64.5879 132.176V130.8H68.8119V132.176H64.5879ZM71.0907 136V124.224H72.9947L76.9147 131.152L78.1467 133.632H78.2267C78.1147 132.432 77.9707 130.992 77.9707 129.728V124.224H79.7467V136H77.8267L73.9387 129.072L72.7067 126.592H72.6267C72.7067 127.824 72.8667 129.168 72.8667 130.464V136H71.0907ZM87.1767 136.224C84.5527 136.224 82.7927 134.784 82.7927 130.96V124.224H84.6487V131.072C84.6487 133.728 85.7047 134.592 87.1767 134.592C88.6487 134.592 89.7527 133.728 89.7527 131.072V124.224H91.5447V130.96C91.5447 134.784 89.7847 136.224 87.1767 136.224ZM99.0711 136.224C96.0311 136.224 93.9351 133.872 93.9351 130.064C93.9351 126.272 96.0311 124.016 99.0711 124.016C102.095 124.016 104.191 126.272 104.191 130.064C104.191 133.872 102.095 136.224 99.0711 136.224ZM99.0711 134.592C101.023 134.592 102.287 132.816 102.287 130.064C102.287 127.312 101.023 125.632 99.0711 125.632C97.1031 125.632 95.8551 127.312 95.8551 130.064C95.8551 132.816 97.1031 134.592 99.0711 134.592ZM110.231 136V124.224H117.207V125.792H112.103V129.056H116.407V130.64H112.103V134.432H117.383V136H110.231ZM119.825 136V124.224H121.729L125.649 131.152L126.881 133.632H126.961C126.849 132.432 126.705 130.992 126.705 129.728V124.224H128.481V136H126.561L122.673 129.072L121.441 126.592H121.361C121.441 127.824 121.601 129.168 121.601 130.464V136H119.825ZM136.391 136.224C133.255 136.224 130.935 134.016 130.935 130.144C130.935 126.304 133.319 124.016 136.439 124.016C138.103 124.016 139.223 124.752 139.943 125.488L138.935 126.688C138.343 126.096 137.623 125.632 136.503 125.632C134.295 125.632 132.855 127.328 132.855 130.08C132.855 132.88 134.151 134.592 136.583 134.592C137.303 134.592 138.023 134.384 138.423 134.016V131.264H136.103V129.728H140.119V134.832C139.335 135.632 137.991 136.224 136.391 136.224ZM142.794 136V124.224H144.666V136H142.794ZM147.731 136V124.224H149.635L153.555 131.152L154.787 133.632H154.867C154.755 132.432 154.611 130.992 154.611 129.728V124.224H156.387V136H154.467L150.579 129.072L149.347 126.592H149.267C149.347 127.824 149.507 129.168 149.507 130.464V136H147.731ZM159.481 136V124.224H166.457V125.792H161.353V129.056H165.657V130.64H161.353V134.432H166.633V136H159.481ZM169.075 136V124.224H176.051V125.792H170.947V129.056H175.251V130.64H170.947V134.432H176.227V136H169.075ZM178.669 136V124.224H182.525C184.957 124.224 186.781 125.088 186.781 127.648C186.781 130.112 184.957 131.248 182.525 131.248H180.541V136H178.669ZM180.541 129.76H182.317C184.013 129.76 184.941 129.056 184.941 127.648C184.941 126.224 184.013 125.728 182.317 125.728H180.541V129.76ZM185.117 136L182.173 130.768L183.549 129.68L187.197 136H185.117ZM189.169 136V124.224H191.041V136H189.169ZM194.106 136V124.224H196.01L199.93 131.152L201.162 133.632H201.242C201.13 132.432 200.986 130.992 200.986 129.728V124.224H202.762V136H200.842L196.954 129.072L195.722 126.592H195.642C195.722 127.824 195.882 129.168 195.882 130.464V136H194.106ZM210.672 136.224C207.536 136.224 205.216 134.016 205.216 130.144C205.216 126.304 207.6 124.016 210.72 124.016C212.384 124.016 213.504 124.752 214.224 125.488L213.216 126.688C212.624 126.096 211.904 125.632 210.784 125.632C208.576 125.632 207.136 127.328 207.136 130.08C207.136 132.88 208.432 134.592 210.864 134.592C211.584 134.592 212.304 134.384 212.704 134.016V131.264H210.384V129.728H214.4V134.832C213.616 135.632 212.272 136.224 210.672 136.224ZM223.069 136V125.792H219.613V124.224H228.397V125.792H224.941V136H223.069ZM230.45 136V124.224H237.426V125.792H232.322V129.056H236.626V130.64H232.322V134.432H237.602V136H230.45ZM244.636 136.224C241.692 136.224 239.404 134.016 239.404 130.144C239.404 126.304 241.756 124.016 244.732 124.016C246.204 124.016 247.34 124.72 248.06 125.488L247.068 126.688C246.46 126.064 245.724 125.632 244.764 125.632C242.732 125.632 241.324 127.328 241.324 130.08C241.324 132.88 242.636 134.592 244.716 134.592C245.788 134.592 246.62 134.112 247.308 133.344L248.316 134.512C247.372 135.616 246.172 136.224 244.636 136.224ZM250.388 136V124.224H252.26V129.04H257.3V124.224H259.156V136H257.3V130.656H252.26V136H250.388ZM262.247 136V124.224H264.151L268.071 131.152L269.303 133.632H269.383C269.271 132.432 269.127 130.992 269.127 129.728V124.224H270.903V136H268.983L265.095 129.072L263.863 126.592H263.783C263.863 127.824 264.023 129.168 264.023 130.464V136H262.247ZM278.493 136.224C275.453 136.224 273.357 133.872 273.357 130.064C273.357 126.272 275.453 124.016 278.493 124.016C281.517 124.016 283.613 126.272 283.613 130.064C283.613 133.872 281.517 136.224 278.493 136.224ZM278.493 134.592C280.445 134.592 281.709 132.816 281.709 130.064C281.709 127.312 280.445 125.632 278.493 125.632C276.525 125.632 275.277 127.312 275.277 130.064C275.277 132.816 276.525 134.592 278.493 134.592ZM286.059 136V124.224H287.931V134.432H292.923V136H286.059ZM298.899 136.224C295.859 136.224 293.763 133.872 293.763 130.064C293.763 126.272 295.859 124.016 298.899 124.016C301.923 124.016 304.019 126.272 304.019 130.064C304.019 133.872 301.923 136.224 298.899 136.224ZM298.899 134.592C300.851 134.592 302.115 132.816 302.115 130.064C302.115 127.312 300.851 125.632 298.899 125.632C296.931 125.632 295.683 127.312 295.683 130.064C295.683 132.816 296.931 134.592 298.899 134.592ZM311.282 136.224C308.146 136.224 305.826 134.016 305.826 130.144C305.826 126.304 308.21 124.016 311.33 124.016C312.994 124.016 314.114 124.752 314.834 125.488L313.826 126.688C313.234 126.096 312.514 125.632 311.394 125.632C309.186 125.632 307.746 127.328 307.746 130.08C307.746 132.88 309.042 134.592 311.474 134.592C312.194 134.592 312.914 134.384 313.314 134.016V131.264H310.994V129.728H315.01V134.832C314.226 135.632 312.882 136.224 311.282 136.224ZM319.636 136V131.552L316.084 124.224H318.068L319.444 127.36C319.812 128.224 320.148 129.056 320.532 129.952H320.596C320.996 129.056 321.364 128.224 321.732 127.36L323.092 124.224H325.028L321.492 131.552V136H319.636ZM334.714 136.224C331.77 136.224 329.482 134.016 329.482 130.144C329.482 126.304 331.834 124.016 334.81 124.016C336.282 124.016 337.418 124.72 338.138 125.488L337.146 126.688C336.538 126.064 335.802 125.632 334.842 125.632C332.81 125.632 331.402 127.328 331.402 130.08C331.402 132.88 332.714 134.592 334.794 134.592C335.866 134.592 336.698 134.112 337.386 133.344L338.394 134.512C337.45 135.616 336.25 136.224 334.714 136.224ZM344.337 136.224C341.297 136.224 339.201 133.872 339.201 130.064C339.201 126.272 341.297 124.016 344.337 124.016C347.361 124.016 349.457 126.272 349.457 130.064C349.457 133.872 347.361 136.224 344.337 136.224ZM344.337 134.592C346.289 134.592 347.553 132.816 347.553 130.064C347.553 127.312 346.289 125.632 344.337 125.632C342.369 125.632 341.121 127.312 341.121 130.064C341.121 132.816 342.369 134.592 344.337 134.592ZM352.751 136.224C352.047 136.224 351.519 135.68 351.519 134.928C351.519 134.16 352.047 133.632 352.751 133.632C353.439 133.632 353.983 134.16 353.983 134.928C353.983 135.68 353.439 136.224 352.751 136.224ZM356.381 139.216L355.981 138.176C357.085 137.712 357.725 136.896 357.725 135.936L357.597 134.464L358.365 135.664C358.141 135.904 357.853 136 357.549 136C356.893 136 356.301 135.568 356.301 134.816C356.301 134.08 356.893 133.632 357.597 133.632C358.493 133.632 359.021 134.368 359.021 135.6C359.021 137.296 358.045 138.592 356.381 139.216ZM365.028 136V124.224H366.9V134.432H371.892V136H365.028ZM374.131 136V125.792H370.675V124.224H379.459V125.792H376.003V136H374.131ZM381.513 136V124.224H384.585C388.201 124.224 390.249 126.224 390.249 130.064C390.249 133.904 388.201 136 384.681 136H381.513ZM383.385 134.48H384.441C386.969 134.48 388.345 132.992 388.345 130.064C388.345 127.136 386.969 125.728 384.441 125.728H383.385V134.48ZM393.548 136.224C392.844 136.224 392.316 135.68 392.316 134.928C392.316 134.16 392.844 133.632 393.548 133.632C394.236 133.632 394.78 134.16 394.78 134.928C394.78 135.68 394.236 136.224 393.548 136.224Z" fill="#0B75B5"/>
</svg>
