<svg width="100" height="27" viewBox="0 0 100 27" fill="none" xmlns="http://www.w3.org/2000/svg">
<path d="M9.83268 25.031V20.2928C9.28474 20.1674 7.4029 19.664 5.96456 17.7866C4.59984 16.0042 4.48511 14.0945 4.47312 13.489C4.48169 12.8764 4.57929 11.0509 5.84812 9.32404C7.3053 7.33737 9.30871 6.84652 9.83268 6.73546C9.83268 5.17515 9.83268 3.61305 9.83268 2.05273C9.06899 2.1423 5.24709 2.67256 2.47142 6.24282C-0.126166 9.58558 -0.0302756 13.2992 0.0142447 14.1734C0.063902 15.198 0.337873 18.2291 2.55019 20.9914C5.29161 24.4148 9.0142 24.9379 9.83268 25.031Z" fill="#0B75B5"/>
<path d="M12.209 20.2124V25.0313C13.1131 24.9525 14.6593 24.6927 16.3323 23.7451C18.185 22.6935 19.2946 21.3052 19.8391 20.5134C18.6781 19.5639 17.5189 18.6145 16.3579 17.665C15.9966 18.163 15.2877 18.9978 14.1336 19.5962C13.3888 19.9813 12.7021 20.1408 12.209 20.2124Z" fill="#0B75B5"/>
<path d="M12.3145 6.78057V2.05664C13.1055 2.06918 14.7888 2.20533 16.5816 3.27479C18.3795 4.34784 19.3487 5.79888 19.7613 6.50648C18.6141 7.47921 17.4668 8.45015 16.3196 9.42288C16.0507 8.98041 15.4805 8.17248 14.4737 7.54728C13.6073 7.00986 12.7922 6.83968 12.3145 6.78057Z" fill="#0B75B5"/>
<path d="M89.9892 20.2534C89.9892 21.837 89.9892 23.4206 89.9892 25.0042C89.1348 24.8824 85.2135 24.2213 82.4738 20.5293C81.8009 19.621 80.1434 17.1077 80.1348 13.4909C80.1245 9.31331 82.3197 6.54738 82.8968 5.86307C85.6348 2.61346 89.169 2.11008 89.9909 2.01514C89.9909 3.60769 89.9909 5.20025 89.9909 6.79459C89.4327 6.90208 87.7375 7.30156 86.3471 8.89412C84.794 10.673 84.6673 12.7385 84.657 13.3941C84.6485 13.876 84.6519 16.418 86.5748 18.4047C87.8779 19.7536 89.3779 20.1352 89.9892 20.2534Z" fill="#0B75B5"/>
<path d="M96.4289 17.6455C97.0556 18.1614 97.6943 18.6774 98.3433 19.1969C98.8981 19.6393 99.4512 20.0746 100.001 20.501C99.4272 21.3018 98.3313 22.6202 96.5573 23.6628C94.9015 24.6356 93.3673 24.9508 92.4375 25.0673V20.261C93.0505 20.1983 93.6395 19.9403 93.9358 19.797C94.2491 19.6465 95.006 19.1557 95.393 18.8171C95.6755 18.5699 96.0317 18.2277 96.4289 17.6455Z" fill="#0B75B5"/>
<path d="M92.4375 6.84655C93.4152 6.96836 93.9015 7.15109 94.6224 7.67776C95.8587 8.58062 96.0248 8.95682 96.3895 9.44945C97.5539 8.48389 98.7628 7.45741 99.9289 6.49185C99.4546 5.74304 98.4032 4.43174 96.6549 3.36944C94.9187 2.3143 93.2937 2.07784 92.4375 2.01514C92.4375 3.60948 92.4375 5.2522 92.4375 6.84655Z" fill="#0B75B5"/>
<path d="M21.8281 0V27H77.6994V0H21.8281ZM28.1243 24.4025H23.9788C23.9788 24.4025 23.9788 15.6246 23.9788 11.8376L28.1243 15.6246V24.4025ZM42.4102 25.0617L23.9788 8.16521V1.90784L37.9017 14.6931V2.62082H42.4119L42.4102 25.0617ZM49.0746 24.4025H44.5198V2.53842H49.0746V24.4025ZM59.482 24.4025H51.2766V19.8022H59.482V24.4025ZM59.482 15.6945H51.2766V11.1766H59.482V15.6945ZM59.482 7.19069H51.2766V2.54916H59.482V7.19069ZM70.5933 24.4025H66.0779V9.82046H70.5933V24.4025ZM75.7765 7.19069H61.6806V2.54916H75.7765V7.19069Z" fill="#0B75B5"/>
</svg>
