<svg width="474" height="166" viewBox="0 0 474 166" fill="none" xmlns="http://www.w3.org/2000/svg">
<path d="M135.94 56.4122V45.7334C134.561 45.4508 129.827 44.3163 126.208 40.0851C122.774 36.068 122.486 31.7641 122.455 30.3995C122.477 29.0187 122.722 24.9047 125.915 21.0126C129.581 16.5352 134.622 15.429 135.94 15.1787C135.94 11.6621 135.94 8.14154 135.94 4.625C134.018 4.82687 124.403 6.02193 117.419 14.0684C110.884 21.6021 111.125 29.9715 111.237 31.9418C111.362 34.2511 112.051 41.0824 117.617 47.308C124.515 55.0234 133.881 56.2023 135.94 56.4122Z" fill="#0B75B5"/>
<path d="M141.92 45.5536V56.4141C144.195 56.2365 148.085 55.6511 152.294 53.5153C156.955 51.1454 159.747 48.0164 161.117 46.2319C158.196 44.0921 155.279 41.9523 152.359 39.8125C151.449 40.9349 149.666 42.8163 146.762 44.1648C144.888 45.0328 143.161 45.3921 141.92 45.5536Z" fill="#0B75B5"/>
<path d="M142.182 15.2832V4.63672C144.172 4.66498 148.407 4.97182 152.917 7.38212C157.441 9.8005 159.879 13.0708 160.918 14.6655C158.031 16.8578 155.145 19.046 152.258 21.2383C151.582 20.2411 150.147 18.4203 147.614 17.0112C145.434 15.8 143.384 15.4165 142.182 15.2832Z" fill="#0B75B5"/>
<path d="M337.612 45.6473C337.612 49.2163 337.612 52.7854 337.612 56.3544C335.462 56.0798 325.596 54.5901 318.703 46.2691C317.01 44.2221 312.84 38.5577 312.818 30.4063C312.793 20.9912 318.316 14.7575 319.767 13.2152C326.656 5.89145 335.548 4.75695 337.616 4.54297C337.616 8.13218 337.616 11.7214 337.616 15.3146C336.212 15.5569 331.947 16.4572 328.448 20.0464C324.541 24.0555 324.222 28.7106 324.196 30.1883C324.175 31.2743 324.183 37.0033 329.021 41.4808C332.3 44.5209 336.074 45.3808 337.612 45.6473Z" fill="#0B75B5"/>
<path d="M353.81 39.7695C355.387 40.9323 356.994 42.0951 358.626 43.2659C360.022 44.2631 361.414 45.2442 362.797 46.2051C361.353 48.0098 358.596 50.9813 354.133 53.331C349.967 55.5233 346.107 56.2339 343.768 56.4963V45.6641C345.31 45.5228 346.792 44.9414 347.537 44.6184C348.326 44.2793 350.23 43.173 351.203 42.41C351.914 41.8528 352.81 41.0817 353.81 39.7695Z" fill="#0B75B5"/>
<path d="M343.768 15.4317C346.228 15.7063 347.451 16.1181 349.265 17.3051C352.375 19.3399 352.793 20.1877 353.711 21.298C356.64 19.1219 359.682 16.8085 362.616 14.6323C361.422 12.9447 358.777 9.98936 354.378 7.59521C350.01 5.21721 345.922 4.68428 343.768 4.54297C343.768 8.13622 343.768 11.8385 343.768 15.4317Z" fill="#0B75B5"/>
<path d="M166.119 0V60.8511H306.689V0H166.119ZM181.96 54.9969H171.53C171.53 54.9969 171.53 35.2138 171.53 26.6789L181.96 35.2138V54.9969ZM217.903 56.4826L171.53 18.4023V4.29978L206.559 33.1144V5.90665H217.907L217.903 56.4826ZM234.67 54.9969H223.21V5.72094H234.67V54.9969ZM260.855 54.9969H240.21V44.629H260.855V54.9969ZM260.855 35.3713H240.21V25.1891H260.855V35.3713ZM260.855 16.206H240.21V5.74516H260.855V16.206ZM288.81 54.9969H277.45V22.1328H288.81V54.9969ZM301.851 16.206H266.386V5.74516H301.851V16.206Z" fill="#0B75B5"/>
<path d="M66.841 105.386H72.0836V109.018H66.841V105.386ZM70.6981 105.386H74.4427C74.4427 105.386 74.4427 106.397 74.4427 106.884C74.2929 115.235 74.1432 118.792 73.3942 119.841C72.7576 120.664 72.2334 121.001 71.3347 121.189C70.5857 121.338 69.4623 121.413 68.1891 121.376C68.1517 120.065 67.7772 118.418 67.2155 117.294C68.1142 117.407 68.8257 117.444 69.2002 117.444C69.6121 117.444 69.9117 117.332 70.1364 116.957C70.5108 116.358 70.5857 113.774 70.6981 106.023V105.386ZM79.573 92.5044L82.4938 90.9691C83.767 92.3172 85.2649 94.1895 85.9015 95.5002L82.8308 97.2602C82.2317 95.987 80.8087 93.9649 79.573 92.5044ZM81.8198 103.514L85.4521 105.049C83.1304 114.149 78.7866 121.638 73.6189 125.832C73.0572 125.158 71.8215 124.072 70.8853 123.51C75.8283 119.578 79.8725 112.464 81.8198 103.514ZM75.1542 90.8193H79.0861C78.9738 107.109 80.0972 120.702 82.3815 120.852C82.9057 120.889 83.2802 118.979 83.4674 115.721C84.104 116.545 85.7891 117.669 86.4257 118.043C85.527 124.559 83.6921 125.982 82.2691 125.944C76.39 125.72 75.3789 111.864 75.1542 90.8193ZM65.9798 97.3725H85.6768V101.379H65.9798V97.3725ZM64.07 97.3725H68.1142V107.146C68.1142 112.576 67.59 120.852 64.744 126.057C64.07 125.308 62.31 123.847 61.4487 123.398C63.8453 118.68 64.07 111.939 64.07 107.146V97.3725ZM51.9372 102.278H61.8981V105.648H51.9372V102.278ZM51.9372 107.371H61.8981V110.778H51.9372V107.371ZM50.4019 96.998H62.8717V100.555H50.4019V96.998ZM53.9968 112.576H61.8606V123.885H53.9968V120.365H58.2657V116.096H53.9968V112.576ZM51.8249 112.576H55.3449V125.458H51.8249V112.576ZM53.0606 92.4295L56.6181 90.707C57.9661 92.1674 59.3517 94.1895 59.9883 95.6125L56.2436 97.6346C55.7193 96.1742 54.3338 94.0023 53.0606 92.4295ZM102.116 103.926H123.498V108.007H102.116V103.926ZM108.894 120.552H119.604V124.447H108.894V120.552ZM106.722 111.902H122.075V125.87H117.881V115.759H110.766V125.982H106.722V111.902ZM109.643 100.106L113.799 100.78C112.264 108.944 109.156 115.459 104.25 119.541C103.689 118.717 102.116 117.032 101.217 116.283C105.786 112.95 108.444 107.184 109.643 100.106ZM89.9083 102.203H100.993V105.611H89.9083V102.203ZM89.9083 107.296H100.993V110.666H89.9083V107.296ZM88.3729 96.998H102.041V100.555H88.3729V96.998ZM91.7432 112.464H101.217V123.847H91.7432V120.253H97.51V116.058H91.7432V112.464ZM89.8334 112.464H93.4657V125.458H89.8334V112.464ZM92.23 92.2798L95.5253 90.5946C96.5364 92.1674 97.6598 94.227 98.184 95.6125L94.7764 97.5972C94.2521 96.1742 93.1287 93.89 92.23 92.2798ZM102.453 94.1895H112.564V98.1215H102.453V94.1895ZM106.048 90.7819H110.354V101.08H106.048V90.7819ZM115.784 90.7819H120.128V101.08H115.784V90.7819ZM113.5 94.1146H123.273V98.0466H113.5V94.1146ZM128.404 94.6763H158.436V99.3572H128.404V94.6763ZM126.307 118.83H160.57V123.361H126.307V118.83ZM140.649 97.2227H145.779V120.627H140.649V97.2227ZM185.398 108.756H189.854V123.922H185.398V108.756ZM176.86 121.226H198.017V125.158H176.86V121.226ZM178.732 113.999H196.557V117.744H178.732V113.999ZM183.151 96.2117V101.567H192.063V96.2117H183.151ZM178.994 92.4295H196.407V105.349H178.994V92.4295ZM194.572 105.835L197.268 109.168C192.101 110.479 184.836 111.115 178.77 111.303C178.657 110.329 178.17 108.831 177.758 107.895C183.638 107.595 190.416 106.884 194.572 105.835ZM168.996 94.2644H173.377V125.907H168.996V94.2644ZM163.604 101.304H177.347V105.498H163.604V101.304ZM169.258 102.99L171.879 104.15C170.456 109.505 167.798 116.171 164.914 119.878C164.502 118.567 163.529 116.695 162.817 115.572C165.438 112.576 168.06 107.146 169.258 102.99ZM175.062 91.1563L178.096 94.6389C174.164 96.1368 168.921 97.1478 164.427 97.6721C164.24 96.7359 163.641 95.2006 163.154 94.2644C167.423 93.5529 172.141 92.467 175.062 91.1563ZM173.265 106.51C174.201 107.296 177.459 110.666 178.17 111.527L175.624 115.047C174.725 113.25 172.478 109.842 171.318 108.27L173.265 106.51ZM219.624 106.023L223.706 107.184C221.384 112.201 217.564 116.807 213.558 119.691C212.958 118.83 211.461 117.182 210.599 116.395C214.381 114.036 217.789 110.217 219.624 106.023ZM226.664 101.791L230.109 100.069C232.019 102.54 234.565 106.06 235.764 108.232L232.094 110.329C231.008 108.082 228.574 104.45 226.664 101.791ZM214.981 109.917C218.388 116.395 225.466 120.664 235.314 122.162C234.378 123.098 233.217 124.896 232.656 126.057C222.395 124.072 215.467 119.129 211.311 111.078L214.981 109.917ZM219.811 110.217H229.847V113.774H216.591L219.811 110.217ZM228.387 110.217H229.21L229.959 110.03L232.768 111.303C229.323 119.878 221.384 124.147 212.022 126.132C211.61 125.046 210.674 123.286 209.925 122.35C218.426 120.927 225.803 117.182 228.387 110.816V110.217ZM208.502 98.8329L212.509 100.256C210.15 104.824 206.443 109.655 202.885 112.688C202.511 111.715 201.275 109.468 200.526 108.494C203.559 106.173 206.667 102.54 208.502 98.8329ZM207.828 90.7819L211.798 92.3172C209.588 95.6125 206.218 99.2074 203.185 101.567C202.661 100.668 201.537 99.0951 200.826 98.2712C203.447 96.3989 206.368 93.2534 207.828 90.7819ZM205.282 106.921L209.139 103.102L209.513 103.252V126.019H205.282V106.921ZM213.483 101.641C213.258 100.705 212.547 98.5708 212.06 97.41C212.846 97.2602 213.633 96.7734 214.569 96.1368C215.542 95.5002 218.613 93.2908 220.635 90.8193L225.129 92.804C222.395 95.3878 218.987 97.9717 215.917 99.507V99.6568C215.917 99.6568 213.483 100.855 213.483 101.641ZM213.483 101.641L213.445 98.8329L215.467 97.7095L225.278 97.5223C224.642 98.4959 223.93 100.031 223.593 100.855C215.73 101.08 214.344 101.304 213.483 101.641ZM212.659 108.944C212.472 108.12 211.835 105.985 211.386 104.824C212.621 104.637 213.82 104.038 215.58 103.027C217.527 102.053 223.856 98.1215 228.05 94.0398L232.206 96.324C226.926 100.743 220.785 104.487 215.13 106.959V107.109C215.13 107.109 212.659 108.195 212.659 108.944ZM212.659 108.944L212.584 105.91L214.831 104.675L231.382 103.776C231.457 104.862 231.682 106.36 231.869 107.184C216.067 108.232 214.044 108.382 212.659 108.944ZM245.238 119.653H265.871V123.997H245.238V119.653ZM243.028 109.393H268.38V125.87H263.549V113.662H247.597V125.907H243.028V109.393ZM258.793 96.5861L262.276 94.227C265.721 97.4474 270.215 102.091 272.199 105.274L268.38 108.045C266.582 104.862 262.276 100.031 258.793 96.5861ZM241.793 106.884C241.568 105.985 240.819 103.738 240.295 102.54C241.343 102.315 242.204 101.604 243.44 100.406C244.751 99.2074 248.833 94.6389 251.416 90.1453L255.947 92.0925C252.615 96.8857 248.346 101.454 244.451 104.6V104.75C244.451 104.75 241.793 106.06 241.793 106.884ZM241.793 106.884L241.718 103.364L244.751 101.791L267.781 101.042C267.818 102.278 268.005 104.113 268.193 105.087C246.623 106.135 243.815 106.173 241.793 106.884ZM285.231 121.675H303.467V124.971H285.231V121.675ZM277.18 101.23H309.309V107.783H304.741V104.6H281.524V107.783H277.18V101.23ZM285.006 106.173H304.628V114.561H285.006V111.34H300.247V109.393H285.006V106.173ZM285.268 116.246H306.65V125.982H302.157V119.541H285.268V116.246ZM281.711 106.173H286.279V126.019H281.711V106.173ZM290.174 99.1325L294.181 98.3087C294.93 99.4321 295.753 101.005 296.015 102.053L291.821 102.952C291.559 101.941 290.848 100.331 290.174 99.1325ZM280.962 93.0661H292.683V96.4738H280.962V93.0661ZM296.427 93.0661H310.47V96.4738H296.427V93.0661ZM281.149 90.4449L285.118 91.6057C283.621 95.238 281.074 98.9827 278.678 101.379C278.041 100.593 276.543 99.0202 275.682 98.3087C277.891 96.3615 279.988 93.4032 281.149 90.4449ZM296.652 90.4449L300.734 91.4934C299.535 94.5266 297.476 97.5597 295.379 99.4321C294.63 98.6832 293.02 97.3351 292.046 96.7734C293.993 95.2006 295.716 92.8415 296.652 90.4449ZM283.358 97.747L286.017 95.3878C287.253 96.3615 288.826 97.7844 289.612 98.7206L286.804 101.304C286.092 100.331 284.557 98.7955 283.358 97.747ZM299.685 97.8219L302.569 95.4627C303.992 96.4738 305.901 97.9717 306.838 99.0576L303.804 101.679C302.981 100.593 301.146 98.9827 299.685 97.8219ZM331.103 102.84V106.06H342.45V102.84H331.103ZM331.103 96.1742V99.3197H342.45V96.1742H331.103ZM327.059 92.3546H346.718V109.842H327.059V92.3546ZM326.797 113.063H347.13V117.107H326.797V113.063ZM324.175 120.702H348.366V124.746H324.175V120.702ZM313.204 92.9163H325.636V97.1104H313.204V92.9163ZM313.578 103.701H324.999V107.858H313.578V103.701ZM312.792 117.931C316.012 117.107 320.805 115.609 325.299 114.149L326.085 118.455C321.891 119.878 317.398 121.338 313.803 122.499L312.792 117.931ZM317.36 94.564H321.629V117.594L317.36 118.268V94.564ZM334.96 93.9649H338.742V108.082H339.154V122.612H334.548V108.082H334.96V93.9649ZM358.402 115.047L362.97 116.695C360.761 119.578 357.428 122.649 354.695 124.521C353.758 123.66 351.886 122.2 350.763 121.526C353.609 119.99 356.642 117.444 358.402 115.047ZM372.519 116.92L376.189 114.561C379.035 116.508 382.742 119.391 384.615 121.451L380.645 124.11C378.998 122.125 375.403 119.054 372.519 116.92ZM365.929 111.715H370.497V121.151C370.497 123.361 370.085 124.521 368.4 125.195C366.79 125.87 364.655 125.944 361.922 125.944C361.697 124.634 360.911 122.724 360.237 121.526C362.184 121.638 364.468 121.638 365.142 121.601C365.779 121.563 365.929 121.451 365.929 121.039V111.715ZM375.89 90.5572L379.222 94.1146C372.07 96.9232 362.109 98.758 353.234 99.8815C353.084 98.758 352.448 97.0729 351.961 96.0993C360.649 94.9385 370.123 92.9538 375.89 90.5572ZM354.433 115.497C354.245 114.673 353.571 112.538 353.122 111.378C354.582 111.19 356.005 110.629 358.327 109.505C360.911 108.382 368.737 104.225 374.504 99.3946L377.837 102.39C371.471 107.221 364.169 110.928 357.316 113.624V113.774C357.316 113.774 354.433 114.748 354.433 115.497ZM354.433 115.497L354.283 112.164L356.979 110.704L379.634 109.168C379.522 110.329 379.522 112.052 379.559 112.95C358.776 114.598 356.23 114.823 354.433 115.497ZM356.043 107.333C355.855 106.51 355.219 104.375 354.77 103.214C355.743 103.064 356.642 102.653 357.953 101.978C359.338 101.304 363.532 98.8329 366.565 96.0244L370.46 98.5334C366.865 101.267 362.671 103.738 358.701 105.349V105.461C358.701 105.461 356.043 106.584 356.043 107.333ZM356.043 107.333L356.005 104.263L358.215 102.99L372.22 102.353C371.958 103.439 371.695 105.049 371.658 105.91C359.113 106.697 357.278 106.884 356.043 107.333ZM373.343 106.734L377.05 104.862C379.709 107.521 382.817 111.041 384.427 113.325L380.57 115.684C379.073 113.362 375.927 109.505 373.343 106.734ZM414.085 101.529L417.718 99.9189C419.665 102.84 421.949 106.659 422.848 109.243L418.878 111.115C418.092 108.607 415.995 104.562 414.085 101.529ZM402.027 95.1257H422.473V99.3197H402.027V95.1257ZM412.063 107.371H416.295V119.99C416.295 121.189 416.37 121.338 416.969 121.338C417.231 121.338 418.204 121.338 418.504 121.338C419.215 121.338 419.328 120.627 419.403 116.171C420.301 116.882 422.061 117.594 423.222 117.893C422.848 123.66 421.837 125.27 418.991 125.27C418.317 125.27 416.856 125.27 416.257 125.27C412.85 125.27 412.063 123.96 412.063 120.028V107.371ZM405.735 108.232H409.966C409.704 116.733 408.843 122.612 402.477 126.132C401.99 125.008 400.754 123.398 399.743 122.574C405.098 119.841 405.547 115.31 405.735 108.232ZM403.151 110.254L403.001 106.847L405.248 105.461L419.028 104.188C419.103 105.349 419.29 107.034 419.478 107.933C406.371 109.393 404.424 109.655 403.151 110.254ZM403.151 110.254C402.926 109.318 402.177 107.109 401.653 105.91C402.552 105.648 403.263 104.75 404.274 103.214C405.323 101.754 408.356 96.0619 410.078 90.6321L415.021 91.8678C412.625 97.7844 409.18 103.701 406.147 107.745V107.858C406.147 107.858 403.151 109.393 403.151 110.254ZM396.71 106.173L399.743 105.012C400.904 107.408 402.027 110.516 402.364 112.538L399.144 113.887C398.844 111.864 397.833 108.607 396.71 106.173ZM393.265 115.984L396.41 115.197C396.86 117.669 397.272 120.814 397.384 122.949L394.051 123.81C393.976 121.675 393.639 118.455 393.265 115.984ZM388.996 115.497L392.478 116.096C392.216 119.429 391.58 123.024 390.868 125.27C390.082 124.858 388.397 124.334 387.535 124.072C388.397 121.9 388.809 118.53 388.996 115.497ZM388.921 105.648C388.696 104.787 388.022 102.802 387.573 101.679C388.284 101.492 388.884 100.78 389.633 99.6568C390.419 98.6083 392.703 94.4517 394.014 90.4823L398.058 92.1674C396.298 96.2117 393.752 100.481 391.393 103.439V103.551C391.393 103.551 388.921 104.862 388.921 105.648ZM388.921 105.648L388.846 102.802L390.494 101.679L396.935 101.23C396.71 102.241 396.523 103.664 396.523 104.487C390.756 105.049 389.595 105.311 388.921 105.648ZM389.183 114.336C388.996 113.512 388.322 111.453 387.835 110.329C388.809 110.067 389.595 109.243 390.756 107.82C392.029 106.435 395.886 100.967 398.17 95.7249L401.84 98.0091C399.144 103.139 395.399 108.382 391.692 112.164V112.239C391.692 112.239 389.183 113.55 389.183 114.336ZM389.183 114.336L388.996 111.303L390.644 110.104L400.118 108.607C399.968 109.618 399.93 111.115 400.005 111.939C391.43 113.475 390.082 113.887 389.183 114.336ZM397.347 115.122L400.342 114.074C401.091 116.058 401.878 118.567 402.252 120.215L399.069 121.376C398.807 119.691 398.058 117.107 397.347 115.122Z" fill="#0B75B5"/>
<path d="M51.7618 160.516C48.3167 160.516 45.6393 157.932 45.6393 153.401C45.6393 148.908 48.3916 146.23 51.8742 146.23C53.5967 146.23 54.9261 147.054 55.7686 147.953L54.6078 149.357C53.8963 148.627 53.035 148.121 51.9116 148.121C49.5337 148.121 47.8861 150.106 47.8861 153.326C47.8861 156.603 49.4214 158.606 51.8554 158.606C53.1099 158.606 54.0835 158.045 54.8886 157.146L56.0682 158.513C54.9635 159.805 53.5593 160.516 51.7618 160.516ZM58.4926 160.254V146.473H60.6832V152.109H66.5811V146.473H68.753V160.254H66.5811V154H60.6832V160.254H58.4926ZM72.3706 160.254V146.473H80.534V148.308H74.5612V152.128H79.5978V153.982H74.5612V158.419H80.7399V160.254H72.3706ZM83.5973 160.254V146.473H85.8254L90.4126 154.581L91.8543 157.483H91.948C91.8169 156.079 91.6484 154.393 91.6484 152.914V146.473H93.7267V160.254H91.4799L86.9301 152.147L85.4884 149.245H85.3948C85.4884 150.686 85.6756 152.259 85.6756 153.776V160.254H83.5973ZM102.983 160.516C99.3133 160.516 96.5984 157.932 96.5984 153.401C96.5984 148.908 99.3882 146.23 103.039 146.23C104.986 146.23 106.297 147.091 107.14 147.953L105.96 149.357C105.267 148.664 104.425 148.121 103.114 148.121C100.53 148.121 98.8452 150.106 98.8452 153.326C98.8452 156.603 100.362 158.606 103.208 158.606C104.05 158.606 104.893 158.363 105.361 157.932V154.712H102.646V152.914H107.346V158.887C106.428 159.823 104.855 160.516 102.983 160.516ZM109.558 155.779V154.169H114.501V155.779H109.558ZM117.168 160.254V146.473H119.396L123.983 154.581L125.425 157.483H125.518C125.387 156.079 125.219 154.393 125.219 152.914V146.473H127.297V160.254H125.05L120.501 152.147L119.059 149.245H118.965C119.059 150.686 119.246 152.259 119.246 153.776V160.254H117.168ZM135.992 160.516C132.921 160.516 130.862 158.831 130.862 154.356V146.473H133.034V154.487C133.034 157.595 134.269 158.606 135.992 158.606C137.714 158.606 139.006 157.595 139.006 154.487V146.473H141.103V154.356C141.103 158.831 139.044 160.516 135.992 160.516ZM149.911 160.516C146.353 160.516 143.901 157.764 143.901 153.308C143.901 148.87 146.353 146.23 149.911 146.23C153.449 146.23 155.902 148.87 155.902 153.308C155.902 157.764 153.449 160.516 149.911 160.516ZM149.911 158.606C152.195 158.606 153.674 156.528 153.674 153.308C153.674 150.087 152.195 148.121 149.911 148.121C147.608 148.121 146.147 150.087 146.147 153.308C146.147 156.528 147.608 158.606 149.911 158.606ZM162.971 160.254V146.473H167.258C170.067 146.473 172.108 147.372 172.108 149.862C172.108 151.192 171.396 152.428 170.16 152.858V152.933C171.733 153.27 172.857 154.356 172.857 156.21C172.857 158.943 170.647 160.254 167.595 160.254H162.971ZM165.161 152.222H167.015C169.112 152.222 169.973 151.435 169.973 150.162C169.973 148.72 169 148.177 167.071 148.177H165.161V152.222ZM165.161 158.55H167.352C169.486 158.55 170.722 157.782 170.722 156.116C170.722 154.562 169.543 153.869 167.352 153.869H165.161V158.55ZM177.706 160.516C175.946 160.516 174.691 159.336 174.691 157.52C174.691 155.311 176.564 154.169 180.833 153.701C180.814 152.502 180.383 151.454 178.885 151.454C177.799 151.454 176.77 151.959 175.908 152.521L175.103 151.042C176.152 150.387 177.612 149.694 179.26 149.694C181.825 149.694 183.005 151.323 183.005 154.075V160.254H181.226L181.057 159.093H180.982C180.046 159.898 178.942 160.516 177.706 160.516ZM178.38 158.793C179.279 158.793 179.99 158.382 180.833 157.595V155.086C177.781 155.442 176.77 156.21 176.77 157.371C176.77 158.382 177.462 158.793 178.38 158.793ZM190.235 160.516C187.464 160.516 185.33 158.531 185.33 155.124C185.33 151.679 187.708 149.694 190.423 149.694C191.733 149.694 192.688 150.218 193.418 150.892L192.37 152.278C191.808 151.791 191.228 151.491 190.535 151.491C188.775 151.491 187.558 152.933 187.558 155.124C187.558 157.296 188.738 158.737 190.46 158.737C191.321 158.737 192.089 158.325 192.707 157.801L193.587 159.243C192.651 160.067 191.434 160.516 190.235 160.516ZM195.714 160.254V145.35H197.848V154.936H197.923L201.911 149.956H204.308L200.825 154.15L204.701 160.254H202.342L199.552 155.592L197.848 157.595V160.254H195.714ZM210.278 160.516C207.469 160.516 205.26 158.513 205.26 155.124C205.26 151.772 207.563 149.694 209.96 149.694C212.675 149.694 214.154 151.66 214.154 154.581C214.154 155.011 214.116 155.423 214.06 155.685H207.376C207.544 157.651 208.78 158.812 210.559 158.812C211.476 158.812 212.244 158.531 213.012 158.045L213.761 159.43C212.806 160.067 211.626 160.516 210.278 160.516ZM207.338 154.188H212.281C212.281 152.409 211.495 151.398 209.997 151.398C208.705 151.398 207.563 152.39 207.338 154.188ZM216.577 160.254V149.956H218.337L218.524 151.398H218.58C219.516 150.462 220.583 149.694 221.988 149.694C224.178 149.694 225.152 151.173 225.152 153.776V160.254H222.98V154.056C222.98 152.259 222.456 151.566 221.257 151.566C220.303 151.566 219.647 152.053 218.749 152.952V160.254H216.577ZM231.818 160.516C229.234 160.516 227.586 158.531 227.586 155.124C227.586 151.772 229.702 149.694 231.986 149.694C233.166 149.694 233.934 150.143 234.758 150.855L234.664 149.151V145.35H236.836V160.254H235.057L234.889 159.112H234.832C234.046 159.898 232.979 160.516 231.818 160.516ZM232.342 158.719C233.185 158.719 233.934 158.325 234.664 157.464V152.446C233.915 151.753 233.185 151.491 232.417 151.491C230.975 151.491 229.815 152.877 229.815 155.086C229.815 157.427 230.732 158.719 232.342 158.719ZM244.447 160.254V146.473H246.956L249.465 153.457C249.802 154.356 250.082 155.292 250.401 156.228H250.476C250.813 155.292 251.075 154.356 251.374 153.457L253.865 146.473H256.374V160.254H254.37V153.457C254.37 152.203 254.539 150.443 254.651 149.188H254.576L253.453 152.371L251.056 158.943H249.708L247.311 152.371L246.207 149.188H246.132C246.244 150.443 246.413 152.203 246.413 153.457V160.254H244.447ZM262.235 160.516C260.475 160.516 259.221 159.336 259.221 157.52C259.221 155.311 261.093 154.169 265.362 153.701C265.344 152.502 264.913 151.454 263.415 151.454C262.329 151.454 261.299 151.959 260.438 152.521L259.633 151.042C260.681 150.387 262.142 149.694 263.789 149.694C266.355 149.694 267.534 151.323 267.534 154.075V160.254H265.755L265.587 159.093H265.512C264.576 159.898 263.471 160.516 262.235 160.516ZM262.909 158.793C263.808 158.793 264.52 158.382 265.362 157.595V155.086C262.31 155.442 261.299 156.21 261.299 157.371C261.299 158.382 261.992 158.793 262.909 158.793ZM270.571 160.254V149.956H272.331L272.518 151.398H272.574C273.511 150.462 274.578 149.694 275.982 149.694C278.173 149.694 279.146 151.173 279.146 153.776V160.254H276.974V154.056C276.974 152.259 276.45 151.566 275.252 151.566C274.297 151.566 273.642 152.053 272.743 152.952V160.254H270.571ZM284.689 160.516C282.929 160.516 281.674 159.336 281.674 157.52C281.674 155.311 283.547 154.169 287.816 153.701C287.797 152.502 287.366 151.454 285.868 151.454C284.782 151.454 283.753 151.959 282.891 152.521L282.086 151.042C283.135 150.387 284.595 149.694 286.243 149.694C288.808 149.694 289.988 151.323 289.988 154.075V160.254H288.209L288.04 159.093H287.965C287.029 159.898 285.925 160.516 284.689 160.516ZM285.363 158.793C286.262 158.793 286.973 158.382 287.816 157.595V155.086C284.764 155.442 283.753 156.21 283.753 157.371C283.753 158.382 284.445 158.793 285.363 158.793ZM296.563 164.879C294.092 164.879 292.294 163.961 292.294 162.182C292.294 161.302 292.837 160.497 293.792 159.936V159.842C293.249 159.505 292.856 158.962 292.856 158.119C292.856 157.314 293.418 156.622 293.998 156.21V156.135C293.305 155.611 292.631 154.618 292.631 153.401C292.631 151.061 294.504 149.694 296.619 149.694C297.219 149.694 297.743 149.806 298.136 149.956H301.768V151.585H299.821C300.214 151.997 300.495 152.671 300.495 153.457C300.495 155.723 298.791 156.996 296.619 156.996C296.17 156.996 295.646 156.902 295.178 156.696C294.859 156.977 294.616 157.277 294.616 157.782C294.616 158.382 295.047 158.775 296.339 158.775H298.248C300.682 158.775 301.956 159.524 301.956 161.284C301.956 163.268 299.859 164.879 296.563 164.879ZM296.619 155.611C297.687 155.611 298.567 154.768 298.567 153.401C298.567 152.016 297.705 151.229 296.619 151.229C295.552 151.229 294.691 152.016 294.691 153.401C294.691 154.768 295.571 155.611 296.619 155.611ZM296.881 163.456C298.679 163.456 299.859 162.576 299.859 161.639C299.859 160.778 299.184 160.497 297.93 160.497H296.376C295.889 160.497 295.44 160.46 295.009 160.348C294.391 160.816 294.129 161.34 294.129 161.864C294.129 162.856 295.178 163.456 296.881 163.456ZM307.771 160.516C304.963 160.516 302.753 158.513 302.753 155.124C302.753 151.772 305.056 149.694 307.453 149.694C310.168 149.694 311.647 151.66 311.647 154.581C311.647 155.011 311.61 155.423 311.553 155.685H304.869C305.038 157.651 306.273 158.812 308.052 158.812C308.97 158.812 309.737 158.531 310.505 158.045L311.254 159.43C310.299 160.067 309.119 160.516 307.771 160.516ZM304.832 154.188H309.775C309.775 152.409 308.988 151.398 307.49 151.398C306.199 151.398 305.056 152.39 304.832 154.188ZM314.07 160.254V149.956H315.83L316.017 151.398H316.073C316.953 150.462 317.983 149.694 319.256 149.694C320.792 149.694 321.653 150.405 322.084 151.585C323.113 150.518 324.162 149.694 325.454 149.694C327.607 149.694 328.599 151.173 328.599 153.776V160.254H326.446V154.056C326.446 152.259 325.903 151.566 324.742 151.566C324.031 151.566 323.282 152.016 322.421 152.952V160.254H320.267V154.056C320.267 152.259 319.724 151.566 318.545 151.566C317.852 151.566 317.066 152.016 316.242 152.952V160.254H314.07ZM336.039 160.516C333.231 160.516 331.021 158.513 331.021 155.124C331.021 151.772 333.324 149.694 335.721 149.694C338.436 149.694 339.915 151.66 339.915 154.581C339.915 155.011 339.878 155.423 339.821 155.685H333.137C333.306 157.651 334.541 158.812 336.32 158.812C337.238 158.812 338.005 158.531 338.773 158.045L339.522 159.43C338.567 160.067 337.387 160.516 336.039 160.516ZM333.1 154.188H338.043C338.043 152.409 337.256 151.398 335.758 151.398C334.467 151.398 333.324 152.39 333.1 154.188ZM342.338 160.254V149.956H344.098L344.285 151.398H344.341C345.278 150.462 346.345 149.694 347.749 149.694C349.94 149.694 350.913 151.173 350.913 153.776V160.254H348.741V154.056C348.741 152.259 348.217 151.566 347.019 151.566C346.064 151.566 345.409 152.053 344.51 152.952V160.254H342.338ZM357.486 160.516C355.183 160.516 354.359 159.056 354.359 156.902V151.679H352.861V150.068L354.471 149.956L354.715 147.11H356.512V149.956H359.208V151.679H356.512V156.921C356.512 158.138 356.961 158.793 358.029 158.793C358.384 158.793 358.815 158.662 359.133 158.531L359.526 160.123C358.946 160.31 358.253 160.516 357.486 160.516ZM369.789 160.516C367.879 160.516 366.138 159.767 364.883 158.494L366.156 156.977C367.13 157.97 368.497 158.606 369.826 158.606C371.474 158.606 372.41 157.839 372.41 156.659C372.41 155.405 371.474 155.011 370.201 154.468L368.291 153.626C366.961 153.083 365.501 152.034 365.501 150.031C365.501 147.859 367.392 146.23 370.013 146.23C371.642 146.23 373.159 146.904 374.189 147.971L373.065 149.338C372.204 148.589 371.23 148.121 370.013 148.121C368.609 148.121 367.71 148.795 367.71 149.881C367.71 151.061 368.815 151.51 369.938 151.978L371.829 152.765C373.458 153.457 374.638 154.468 374.638 156.491C374.638 158.7 372.803 160.516 369.789 160.516ZM377.529 164.56C377.005 164.56 376.593 164.485 376.237 164.354L376.649 162.669C376.836 162.744 377.136 162.819 377.398 162.819C378.502 162.819 379.177 161.995 379.551 160.891L379.757 160.179L375.675 149.956H377.885L379.776 155.255C380.094 156.172 380.394 157.202 380.731 158.176H380.824C381.068 157.221 381.348 156.21 381.611 155.255L383.277 149.956H385.374L381.592 160.891C380.787 163.081 379.701 164.56 377.529 164.56ZM390.035 160.516C388.612 160.516 387.152 159.917 386.159 159.093L387.17 157.689C388.088 158.4 388.968 158.868 390.091 158.868C391.308 158.868 391.889 158.269 391.889 157.483C391.889 156.565 390.728 156.135 389.623 155.723C388.238 155.199 386.721 154.468 386.721 152.708C386.721 150.986 388.107 149.694 390.41 149.694C391.776 149.694 392.918 150.256 393.742 150.911L392.731 152.24C392.02 151.735 391.29 151.342 390.447 151.342C389.305 151.342 388.781 151.903 388.781 152.615C388.781 153.495 389.773 153.832 390.915 154.244C392.357 154.787 393.93 155.442 393.93 157.371C393.93 159.112 392.563 160.516 390.035 160.516ZM399.174 160.516C396.871 160.516 396.048 159.056 396.048 156.902V151.679H394.55V150.068L396.16 149.956L396.403 147.11H398.201V149.956H400.897V151.679H398.201V156.921C398.201 158.138 398.65 158.793 399.717 158.793C400.073 158.793 400.504 158.662 400.822 158.531L401.215 160.123C400.635 160.31 399.942 160.516 399.174 160.516ZM407.057 160.516C404.248 160.516 402.039 158.513 402.039 155.124C402.039 151.772 404.342 149.694 406.738 149.694C409.453 149.694 410.932 151.66 410.932 154.581C410.932 155.011 410.895 155.423 410.839 155.685H404.154C404.323 157.651 405.559 158.812 407.337 158.812C408.255 158.812 409.023 158.531 409.79 158.045L410.539 159.43C409.584 160.067 408.405 160.516 407.057 160.516ZM404.117 154.188H409.06C409.06 152.409 408.274 151.398 406.776 151.398C405.484 151.398 404.342 152.39 404.117 154.188ZM413.355 160.254V149.956H415.115L415.302 151.398H415.359C416.239 150.462 417.268 149.694 418.542 149.694C420.077 149.694 420.938 150.405 421.369 151.585C422.399 150.518 423.447 149.694 424.739 149.694C426.892 149.694 427.885 151.173 427.885 153.776V160.254H425.731V154.056C425.731 152.259 425.188 151.566 424.028 151.566C423.316 151.566 422.567 152.016 421.706 152.952V160.254H419.553V154.056C419.553 152.259 419.01 151.566 417.83 151.566C417.137 151.566 416.351 152.016 415.527 152.952V160.254H413.355Z" fill="#0B75B5"/>
</svg>
